<svg width="73" height="73" viewBox="0 0 73 73" fill="none" xmlns="http://www.w3.org/2000/svg">
<path d="M55.259 17.6746C49.9902 12.4329 43.5532 9.77441 36.1288 9.77441C28.6351 9.77441 22.1801 12.4359 16.9414 17.6776C11.6937 22.9193 9.03223 29.3803 9.03223 36.871C9.03223 44.2924 11.6907 50.7294 16.9324 56.0011C22.1741 61.288 28.6321 63.9675 36.1288 63.9675C43.5563 63.9675 49.9932 61.288 55.265 56.0102C60.5488 50.7324 63.2253 44.2924 63.2253 36.871C63.2253 29.3803 60.5458 22.9193 55.259 17.6746ZM51.0078 51.753C47.5846 55.1822 43.6737 57.1362 39.1395 57.7293V42.8924H45.161V36.871H39.1395V32.656C39.1395 32.4185 39.1863 32.1833 39.2773 31.964C39.3683 31.7446 39.5016 31.5453 39.6697 31.3775C39.8377 31.2098 40.0372 31.0768 40.2567 30.9862C40.4763 30.8956 40.7115 30.8491 40.949 30.8495H45.161V24.8281H40.955C38.721 24.8281 36.8574 25.65 35.3641 27.3029C33.8707 28.9497 33.1181 30.9609 33.1181 33.3484V36.871H27.0966V42.8924H33.1181V57.7353C28.5357 57.1482 24.6097 55.1913 21.2046 51.762C17.0649 47.5952 15.0537 42.7238 15.0537 36.871C15.0537 30.9519 17.0618 26.0685 21.2016 21.9378C25.3263 17.804 30.2097 15.7959 36.1288 15.7959C41.9846 15.7959 46.853 17.807 51.0168 21.9468C55.1807 26.0775 57.2039 30.9609 57.2039 36.871C57.2039 42.7148 55.1777 47.5862 51.0078 51.753Z" fill="white"/>
</svg>
