<svg width="51" height="51" viewBox="0 0 51 51" fill="none" xmlns="http://www.w3.org/2000/svg">
<path d="M36.7983 11.6724H40.1333M15.1211 1.66748H35.1309C38.6688 1.66748 42.0618 3.07292 44.5635 5.57463C47.0653 8.07634 48.4707 11.4694 48.4707 15.0073V35.0171C48.4707 38.555 47.0653 41.9481 44.5635 44.4498C42.0618 46.9515 38.6688 48.3569 35.1309 48.3569H15.1211C11.5831 48.3569 8.1901 46.9515 5.6884 44.4498C3.18669 41.9481 1.78125 38.555 1.78125 35.0171V15.0073C1.78125 11.4694 3.18669 8.07634 5.6884 5.57463C8.1901 3.07292 11.5831 1.66748 15.1211 1.66748ZM25.126 35.0171C22.4725 35.0171 19.9277 33.963 18.0515 32.0867C16.1752 30.2104 15.1211 27.6657 15.1211 25.0122C15.1211 22.3587 16.1752 19.814 18.0515 17.9377C19.9277 16.0614 22.4725 15.0073 25.126 15.0073C27.7794 15.0073 30.3242 16.0614 32.2005 17.9377C34.0768 19.814 35.1309 22.3587 35.1309 25.0122C35.1309 27.6657 34.0768 30.2104 32.2005 32.0867C30.3242 33.963 27.7794 35.0171 25.126 35.0171Z" stroke="white"/>
</svg>
