<svg width="69" height="69" viewBox="0 0 69 69" fill="none" xmlns="http://www.w3.org/2000/svg">
<path d="M34.1325 57.2102C40.1273 57.2102 45.8766 54.8288 50.1156 50.5898C54.3546 46.3508 56.7361 40.6014 56.7361 34.6066C56.7361 28.6117 54.3546 22.8624 50.1156 18.6234C45.8766 14.3844 40.1273 12.003 34.1325 12.003C28.1376 12.003 22.3883 14.3844 18.1493 18.6234C13.9103 22.8624 11.5288 28.6117 11.5288 34.6066C11.5288 40.6014 13.9103 46.3508 18.1493 50.5898C22.3883 54.8288 28.1376 57.2102 34.1325 57.2102ZM34.1325 62.8611C18.5275 62.8611 5.87793 50.2116 5.87793 34.6066C5.87793 19.0016 18.5275 6.35205 34.1325 6.35205C49.7374 6.35205 62.387 19.0016 62.387 34.6066C62.387 50.2116 49.7374 62.8611 34.1325 62.8611Z" fill="white"/>
<path d="M48.2594 25.9804C47.2196 26.4325 46.1036 26.7433 44.931 26.8789C46.129 26.1726 47.0445 25.0537 47.4796 23.7229C46.338 24.3882 45.0924 24.8562 43.7952 25.1074C43.2495 24.5354 42.5931 24.0806 41.8659 23.7707C41.1387 23.4608 40.356 23.3022 39.5655 23.3047C36.3643 23.3047 33.7705 25.8618 33.7705 29.0121C33.7705 29.4586 33.8213 29.8937 33.9202 30.3118C31.6241 30.2028 29.3758 29.6163 27.319 28.5899C25.2621 27.5634 23.4418 26.1194 21.9742 24.3501C21.4588 25.2178 21.1874 26.2087 21.1887 27.218C21.1887 29.1958 22.2144 30.9476 23.7684 31.9676C22.8485 31.9387 21.9484 31.6938 21.1407 31.2527V31.3234C21.1494 32.6498 21.6177 33.9322 22.4656 34.9522C23.3136 35.9723 24.4889 36.6669 25.7914 36.9177C24.9363 37.1438 24.0416 37.1767 23.1722 37.0138C23.5512 38.1549 24.276 39.1497 25.2462 39.8601C26.2163 40.5705 27.3835 40.9612 28.5858 40.9779C26.5231 42.5674 23.9906 43.4262 21.3865 43.4191C20.9203 43.4191 20.4598 43.3909 20.0049 43.34C22.6621 45.022 25.7433 45.9128 28.8881 45.9083C39.5514 45.9083 45.3803 37.2116 45.3803 29.6676L45.3605 28.9274C46.4972 28.1286 47.4794 27.1301 48.2594 25.9804Z" fill="white"/>
</svg>
